<?xml version="1.0" encoding="UTF-8"?>
<svg xmlns="http://www.w3.org/2000/svg" xmlns:xlink="http://www.w3.org/1999/xlink" width="200pt" height="200pt" viewBox="0 0 200 200" version="1.1">
<defs>
<clipPath id="clip1">
  <path d="M 7 11 L 187 11 L 187 174 L 7 174 Z M 7 11 "/>
</clipPath>
<clipPath id="clip2">
  <path d="M 97.390625 11.78125 L 102.164062 11.953125 C 104.324219 12 110.011719 12.796875 113.625 13.546875 C 125.347656 15.980469 135.582031 20.234375 143.597656 26.027344 C 148.074219 29.242188 153.101562 33.984375 156.929688 38.566406 C 163.683594 46.652344 169.09375 56.757812 171.84375 66.445312 C 174.601562 76.191406 174.960938 85.121094 172.921875 93.101562 C 172.589844 94.433594 171.945312 94.796875 173.210938 95.386719 C 177.300781 97.359375 180.363281 100.890625 181.609375 105.066406 C 183.011719 109.761719 182.714844 116.496094 180.804688 122.773438 C 179.929688 125.679688 179.066406 127.179688 177.265625 128.929688 C 175.179688 130.984375 173.148438 132.09375 170.210938 132.808594 C 168.0625 133.324219 166.648438 133.464844 164.113281 133.382812 C 161.078125 133.28125 161.296875 133.164062 160.011719 135.632812 C 158.882812 137.789062 157.359375 141.113281 157.3125 141.503906 C 157.277344 141.734375 157.421875 141.851562 158.273438 142.265625 C 159.664062 142.957031 161.824219 143.777344 163.15625 144.113281 C 164.847656 144.527344 166.527344 144.664062 169.636719 144.597656 C 172.179688 144.550781 172.46875 144.527344 173.292969 144.261719 C 175.503906 143.558594 177.253906 142.625 180.171875 140.617188 C 182.761719 138.832031 183.714844 138.382812 184.578125 138.035156 C 185.039062 137.851562 185.730469 137.371094 186.164062 137.734375 C 186.480469 138.003906 186.507812 138.777344 186.351562 139.796875 C 186.238281 140.554688 186.113281 141.449219 185.75 142.382812 C 185.597656 142.949219 183.683594 146.269531 181.957031 148.4375 C 180.902344 149.753906 176.988281 153.5 175.574219 154.550781 C 173.773438 155.878906 171.769531 157.101562 169.71875 158.105469 C 162.171875 161.796875 152.355469 164.667969 144.738281 165.394531 C 138.796875 165.960938 137.476562 166.269531 133.097656 168.140625 C 127.265625 170.617188 119.109375 172.578125 113.421875 172.867188 C 108.234375 173.140625 103.039062 173.109375 97.859375 172.914062 C 96.585938 172.890625 93.777344 172.558594 91.164062 172.132812 C 80.746094 170.445312 71.066406 166.835938 62.859375 161.5625 C 59.953125 159.695312 57.914062 158.148438 54.988281 155.578125 C 54.160156 154.851562 53.128906 153.964844 52.671875 153.59375 C 51.445312 152.597656 50.507812 152.914062 48.867188 153.214844 C 46.421875 153.675781 44.824219 153.777344 41.441406 153.710938 C 37.300781 153.628906 35.105469 153.292969 32.03125 152.289062 C 30.183594 151.691406 26.671875 150.050781 24.894531 148.96875 C 21.042969 146.625 15.941406 142.3125 12.941406 138.863281 C 10.820312 136.429688 8.972656 133.820312 8.3125 132.355469 C 8.136719 131.953125 8.109375 131.5 8.042969 131.066406 C 7.96875 130.570312 7.632812 128.828125 8.144531 128.28125 C 8.371094 128.039062 8.832031 128.242188 9.046875 128.316406 C 11.464844 129.140625 11.796875 129.0625 13.832031 130.671875 C 15.582031 132.058594 17.515625 133.359375 18.652344 133.914062 C 19.039062 134.097656 19.855469 134.421875 20.464844 134.617188 C 21.484375 134.953125 21.691406 134.988281 23.191406 134.988281 C 24.976562 135 25.421875 134.90625 26.96875 134.15625 C 28.21875 133.566406 29.140625 132.886719 30.292969 131.734375 C 32.429688 129.566406 33.714844 127.582031 34 126.011719 C 34.179688 124.953125 34.085938 123.984375 33.507812 121.15625 C 32.429688 115.792969 31.566406 108.746094 30.964844 100.105469 C 30.75 97.003906 30.75 82.363281 30.964844 79.570312 C 31.804688 68.785156 33.414062 61.460938 36.4375 54.632812 C 37.113281 53.097656 37.433594 52.78125 37.710938 51.300781 C 37.761719 51.023438 37.734375 50.519531 37.53125 50.273438 C 37.199219 49.863281 36.800781 49.507812 36.414062 49.144531 C 34.925781 47.722656 34.085938 46.523438 33.507812 44.988281 C 32.261719 41.667969 32.429688 38.230469 34 35.058594 C 34.722656 33.605469 35.488281 32.589844 36.714844 31.460938 C 37.828125 30.445312 38.691406 29.878906 40.046875 29.277344 C 41.753906 28.519531 42.292969 28.414062 44.667969 28.425781 C 46.648438 28.425781 46.828125 28.449219 47.726562 28.746094 C 49.875 29.464844 51.589844 30.617188 52.984375 32.289062 C 54.433594 34.03125 55.191406 35.808594 55.480469 38.171875 C 55.789062 40.746094 55.359375 43.007812 54.085938 45.472656 C 53.4375 46.753906 53.308594 47.238281 53.605469 47.34375 C 53.894531 47.457031 54.460938 47.148438 55.453125 46.339844 C 57.027344 45.058594 58.273438 43.097656 58.910156 40.871094 C 59.210938 39.820312 59.234375 39.535156 59.246094 37.640625 C 59.246094 35.253906 59.113281 34.664062 58.140625 32.808594 C 56.703125 30.050781 54.976562 28.414062 52.035156 26.996094 C 51.539062 26.753906 51.066406 26.46875 50.589844 26.191406 C 49.359375 25.480469 51.175781 24.503906 51.777344 24.058594 C 52.96875 23.179688 54.160156 22.296875 55.40625 21.492188 C 62.785156 16.761719 72 13.683594 83.0625 12.265625 C 90.992188 11.519531 86.222656 11.824219 97.390625 11.78125 M 83.242188 132.773438 C 82.921875 132.75 82.789062 132.851562 81.984375 133.8125 C 80.855469 135.136719 77.628906 138.273438 76.046875 139.578125 C 71.796875 143.074219 66.828125 146.097656 61.164062 148.632812 C 59.847656 149.234375 58.695312 149.785156 58.609375 149.867188 C 58.308594 150.144531 58.863281 151.101562 59.796875 151.945312 C 62.390625 154.296875 66.410156 157.121094 69.925781 159.0625 C 71.738281 160.054688 75.230469 161.667969 77.242188 162.429688 C 83.820312 164.921875 91.113281 166.445312 99.320312 167.054688 C 102.308594 167.273438 108.621094 167.273438 111.320312 167.066406 C 115.148438 166.765625 118.722656 166.234375 121.398438 165.566406 C 121.976562 165.421875 122.554688 165.265625 123.105469 165.042969 C 123.84375 164.746094 123.683594 164.121094 123.101562 163.761719 C 122.613281 163.464844 121.476562 163.371094 121.089844 163.28125 C 115.363281 161.957031 110.253906 159.71875 103.605469 155.648438 C 102.273438 154.828125 102.046875 154.734375 101.433594 154.6875 C 100.582031 154.632812 100.355469 154.734375 98.660156 155.933594 C 97.964844 156.429688 97.054688 157.019531 96.621094 157.238281 C 94.078125 158.589844 89.339844 159.324219 85.941406 158.933594 C 83.628906 158.65625 81.203125 157.769531 79.261719 156.488281 C 77.398438 155.265625 74.234375 152.058594 73.550781 150.710938 C 72.914062 149.453125 72.839844 147.859375 73.34375 146.546875 C 74.496094 143.613281 78.128906 143.984375 80.578125 144.5625 C 83.605469 145.300781 84.253906 145.367188 87.804688 145.378906 L 90.921875 145.378906 L 90.960938 145.082031 C 90.984375 144.859375 90.695312 144.421875 89.734375 143.234375 C 87.539062 140.523438 85.777344 137.652344 84.324219 134.421875 C 83.640625 132.898438 83.578125 132.808594 83.242188 132.773438 M 79.71875 149.523438 C 79.386719 149.757812 79.417969 149.609375 79.546875 149.949219 C 79.871094 150.492188 81.851562 152.242188 82.621094 152.695312 C 84.46875 153.742188 87.261719 154.191406 89.855469 153.847656 C 91.234375 153.664062 92.6875 153.222656 94.1875 152.53125 C 94.886719 152.210938 95.554688 151.820312 96.238281 151.464844 C 96.5 151.332031 97.125 151.113281 97.222656 150.757812 C 97.296875 150.488281 96.703125 150.222656 96.609375 150.144531 L 95.984375 149.625 L 95.121094 149.832031 C 92.304688 150.480469 86.253906 150.445312 81.109375 149.765625 C 80.648438 149.640625 80.1875 149.574219 79.71875 149.523438 M 107.449219 27.441406 L 106.246094 27.457031 C 104.195312 27.503906 103.726562 27.550781 102.71875 27.8125 C 101.039062 28.242188 99.644531 28.816406 98.46875 29.566406 C 97.28125 30.328125 96.585938 31.101562 95.902344 32.449219 C 95.148438 33.914062 94.917969 34.90625 94.859375 37.121094 C 94.785156 39.5 94.941406 40.296875 95.769531 41.910156 C 96.851562 43.996094 98.050781 45.140625 100.28125 46.179688 C 101.804688 46.894531 102.574219 47.078125 103.820312 47.019531 L 104.722656 46.984375 L 103.703125 46.476562 C 101.085938 45.175781 99.921875 44.171875 99.082031 42.496094 C 98.386719 41.089844 98.253906 40.375 98.339844 38.355469 C 98.445312 35.808594 98.878906 34.5625 100.101562 33.28125 C 100.75 32.601562 101.984375 31.746094 102.800781 31.414062 C 104.300781 30.8125 107.191406 30.523438 109.160156 30.765625 C 110.421875 30.929688 112.460938 31.550781 113.410156 32.070312 C 114.429688 32.613281 115.578125 33.464844 116.277344 34.15625 C 117.03125 34.929688 118.339844 36.847656 118.84375 37.894531 C 120.390625 41.195312 120.152344 45.878906 118.257812 49.0625 C 115.722656 53.328125 111.488281 56.179688 105.980469 57.332031 C 104.582031 57.617188 103.078125 57.625 101.660156 57.585938 C 97.796875 57.480469 97.414062 57.550781 93.660156 56.617188 C 87.527344 55.082031 84.085938 53.191406 78.457031 48.289062 C 77.148438 47.148438 76.824219 46.960938 76.296875 47.089844 C 76.128906 47.125 75.386719 47.710938 74.640625 48.382812 C 72.179688 50.585938 69.421875 52.394531 66.085938 53.976562 C 60.046875 56.835938 52.519531 57.535156 46.191406 55.058594 C 45.613281 54.832031 45.074219 54.519531 44.476562 54.339844 C 42.929688 53.878906 42.535156 55.324219 42.089844 56.457031 C 39.867188 62.050781 38.175781 69.269531 37.300781 76.917969 C 36.796875 81.269531 36.714844 83.242188 36.785156 90 C 36.84375 96.449219 37.097656 100.75 37.839844 108.296875 C 38.332031 113.40625 39.0625 119.253906 39.21875 119.507812 C 39.339844 119.691406 39.84375 119.289062 40.78125 118.285156 C 41.992188 116.96875 44.234375 114.996094 45.929688 113.773438 C 50.296875 110.589844 55.238281 108.480469 60.445312 107.589844 C 62.257812 107.28125 66.398438 107.164062 68.160156 107.359375 C 75.023438 108.167969 80.605469 111.433594 84.5625 116.945312 C 85.320312 118.003906 85.488281 118.855469 86.617188 118.007812 C 86.839844 117.839844 87.027344 117.632812 87.238281 117.453125 C 90 115.089844 92.566406 113.566406 95.902344 112.296875 C 99.527344 110.925781 103.210938 110.289062 108.140625 110.175781 C 112.351562 110.082031 114.835938 110.335938 118.878906 111.292969 C 130.964844 114.144531 140.863281 121.457031 150.976562 135.03125 C 151.28125 135.441406 152.074219 137.726562 152.933594 136.808594 C 153.222656 136.511719 154.058594 134.746094 154.574219 133.339844 C 155.054688 132.046875 155.546875 130.0625 155.777344 128.539062 C 155.957031 127.328125 156.101562 126.902344 156.410156 126.691406 C 156.773438 126.449219 157.828125 126.472656 160.214844 126.761719 C 161.308594 126.890625 163.121094 127.027344 164.234375 127.0625 C 167.414062 127.164062 169.046875 126.890625 171.230469 125.875 C 172.75 125.167969 174.132812 124.089844 174.878906 122.597656 C 176.1875 119.957031 176.847656 116.082031 176.738281 111.582031 C 176.664062 108.351562 176.222656 106.058594 175.320312 104.292969 C 174.734375 103.128906 173.472656 102.226562 171.097656 101.269531 C 169.921875 100.800781 168.683594 100.484375 167.472656 100.105469 C 166.984375 99.953125 164.675781 98.898438 164.191406 99.816406 C 163.996094 100.183594 163.835938 100.574219 163.753906 100.980469 C 163.660156 101.441406 163.503906 101.949219 163.394531 102.113281 C 162.867188 102.886719 160.121094 103.253906 159.003906 102.699219 C 158.414062 102.398438 157.433594 101.363281 157 100.578125 C 156.34375 99.003906 156.628906 98.59375 156.578125 96.566406 C 156.542969 95.21875 156.425781 90.179688 156.136719 88.859375 C 155.847656 87.507812 154.347656 82.894531 153.652344 81.1875 C 151.433594 75.753906 148.179688 71.070312 144.003906 67.308594 C 138.449219 62.304688 132.164062 59.375 122.984375 57.480469 C 122.300781 57.34375 121.941406 57.195312 121.664062 56.964844 L 121.28125 56.640625 L 121.855469 53.421875 C 122.167969 51.65625 122.769531 48.21875 123.199219 45.773438 C 123.777344 42.519531 124.039062 41.253906 124.207031 41.046875 C 124.59375 40.535156 125.226562 40.59375 127.578125 41.332031 C 132.800781 42.984375 136.195312 44.714844 139.996094 47.65625 C 147.171875 53.203125 152.597656 60.136719 156.59375 68.855469 C 158.609375 73.226562 160.769531 79.421875 161.488281 82.835938 C 161.609375 83.421875 161.753906 84.007812 161.90625 84.585938 C 161.921875 84.644531 162.03125 85.035156 162.21875 84.992188 C 162.40625 84.953125 162.367188 84.558594 162.363281 84.488281 C 162.359375 83.628906 162.359375 82.773438 162.339844 81.914062 C 162.242188 77.785156 161.90625 75.71875 160.636719 71.496094 C 158.765625 65.28125 156.785156 61.046875 153.4375 56.15625 C 149.082031 49.765625 142.636719 43.328125 135.679688 38.390625 C 128.921875 33.605469 121.292969 29.960938 114.667969 28.367188 C 112.308594 27.691406 109.886719 27.515625 107.449219 27.441406 M 110.835938 59.132812 C 118.460938 59.132812 125.671875 62.269531 130.613281 67.726562 C 132.203125 69.476562 133.230469 70.964844 134.324219 73.085938 C 135.480469 75.355469 136.105469 77.164062 136.613281 79.722656 C 136.886719 81.136719 137.003906 85.390625 136.808594 86.851562 C 136.015625 92.609375 133.515625 97.480469 129.3125 101.488281 C 125.203125 105.40625 120.035156 107.839844 114.324219 108.558594 C 112.527344 108.78125 109.105469 108.78125 107.386719 108.558594 C 101.84375 107.824219 96.910156 105.53125 92.890625 101.8125 C 90.484375 99.578125 88.871094 97.445312 87.476562 94.714844 C 81.21875 82.363281 86.621094 67.679688 99.644531 61.601562 C 103.222656 59.9375 106.855469 59.132812 110.835938 59.132812 M 109.601562 64.292969 C 107.050781 64.292969 106.503906 64.328125 105.398438 64.566406 C 102.808594 65.109375 100.152344 66.152344 97.925781 67.480469 L 97.25 67.875 L 99.476562 67.828125 C 102.195312 67.777344 104.082031 67.949219 105.851562 68.433594 C 113.621094 70.507812 119.566406 76.175781 121.621094 83.480469 C 122.210938 85.527344 122.390625 87.210938 122.3125 89.703125 C 122.261719 91.429688 122.171875 92.285156 121.910156 93.4375 C 121.167969 96.800781 119.695312 99.824219 117.589844 102.320312 C 117.199219 102.777344 116.886719 103.175781 116.886719 103.210938 C 116.886719 103.359375 117.109375 103.273438 118.644531 102.554688 C 125.085938 99.566406 129.40625 94.15625 130.5625 87.648438 C 130.964844 85.425781 130.875 82.164062 130.367188 80.03125 C 128.664062 72.960938 123.550781 67.539062 116.457031 65.273438 C 113.816406 64.429688 112.867188 64.292969 109.601562 64.292969 M 163.613281 88.546875 L 163.273438 88.570312 C 163.074219 88.578125 162.628906 88.527344 162.40625 88.667969 C 162.148438 88.832031 162.171875 89.21875 162.148438 89.449219 C 162.105469 89.988281 162.164062 90.703125 162.183594 91.199219 C 162.21875 92.375 162.292969 93.378906 162.339844 93.449219 C 162.507812 93.714844 162.878906 92.964844 163.515625 91.097656 C 163.84375 90.101562 164.074219 90.183594 164.25 89.277344 C 164.269531 89.179688 164.261719 89.078125 164.246094 88.980469 C 164.058594 88.515625 164.230469 88.703125 163.613281 88.546875 M 146.152344 59.753906 C 146.09375 59.777344 145.671875 60.308594 145.21875 60.941406 L 144.378906 62.097656 L 144.882812 62.5 C 145.460938 62.941406 145.992188 63.429688 146.535156 63.90625 C 146.664062 64.019531 147.199219 64.574219 147.449219 64.738281 C 147.601562 64.839844 147.796875 64.972656 147.996094 64.921875 C 148.148438 64.882812 148.46875 64.601562 148.527344 64.566406 C 148.851562 64.367188 149.128906 64.195312 149.152344 64.171875 C 149.273438 64.070312 146.296875 59.710938 146.152344 59.753906 M 139.050781 52.382812 C 138.917969 52.429688 136.351562 56.941406 136.339844 57.136719 C 136.339844 57.207031 136.757812 57.460938 137.273438 57.703125 C 137.8125 57.960938 138.335938 58.238281 138.859375 58.519531 C 139.039062 58.621094 139.375 58.929688 139.636719 58.878906 C 139.710938 58.867188 140.371094 58.105469 141.113281 57.195312 C 141.203125 57.082031 142.164062 56.292969 142.339844 55.949219 C 142.417969 55.796875 142.558594 55.589844 142.457031 55.453125 C 142.011719 54.84375 141.371094 54.386719 140.816406 53.863281 C 140.4375 53.511719 140.054688 53.164062 139.65625 52.828125 C 139.464844 52.667969 139.292969 52.3125 139.050781 52.382812 M 133.21875 48.253906 C 133.171875 48.289062 132.785156 49.175781 132.378906 50.238281 C 130.925781 53.976562 130.578125 54.992188 130.710938 55.070312 C 130.855469 55.152344 131.417969 55.324219 131.609375 55.335938 C 131.683594 55.347656 132.320312 54.34375 133.039062 53.132812 C 133.746094 51.910156 134.539062 50.574219 134.789062 50.15625 C 135.03125 49.742188 135.210938 49.371094 135.1875 49.328125 C 135.078125 49.164062 133.316406 48.195312 133.21875 48.253906 M 127.878906 45.867188 L 127.652344 45.945312 C 127.601562 46.085938 126.535156 51.921875 126.320312 53.238281 C 126.289062 53.429688 126.257812 53.632812 126.316406 53.816406 C 126.375 53.992188 126.730469 54.003906 126.824219 53.875 C 127.007812 53.621094 127.121094 53.324219 127.230469 53.035156 C 127.5 52.296875 127.667969 50.851562 127.808594 50.261719 C 128.285156 48.21875 128.71875 46.453125 128.742188 46.351562 C 128.484375 45.914062 128.695312 46.167969 127.878906 45.867188 "/>
</clipPath>
<linearGradient id="linear0" gradientUnits="userSpaceOnUse" x1="0" y1="-100" x2="0" y2="100" gradientTransform="matrix(1,0,0,1,100,100)">
<stop offset="0" style="stop-color:rgb(0%,0%,100%);stop-opacity:1;"/>
<stop offset="1" style="stop-color:rgb(100%,0%,100%);stop-opacity:1;"/>
</linearGradient>
</defs>
<g id="surface154">
<rect x="0" y="0" width="200" height="200" style="fill:rgb(100%,100%,100%);fill-opacity:1;stroke:none;"/>
<g clip-path="url(#clip1)" clip-rule="nonzero">
<g clip-path="url(#clip2)" clip-rule="nonzero">
<rect x="0" y="0" width="200" height="200" style="fill:url(#linear0);stroke:none;"/>
</g>
</g>
</g>
</svg>
