<?xml version="1.0" encoding="UTF-8"?>
<svg xmlns="http://www.w3.org/2000/svg" xmlns:xlink="http://www.w3.org/1999/xlink" width="600pt" height="600pt" viewBox="0 0 600 600" version="1.1">
<g id="surface146">
<rect x="0" y="0" width="200" height="200" style="fill:rgb(100%,100%,100%);fill-opacity:1;stroke:none;"/>
<path style=" stroke:none;fill-rule:nonzero;fill:rgb(0%,0%,0%);fill-opacity:1;" d="M 297.390625 211.78125 L 302.164062 211.953125 C 304.324219 212 310.011719 212.796875 313.625 213.546875 C 325.347656 215.980469 335.582031 220.234375 343.597656 226.027344 C 348.074219 229.242188 353.101562 233.984375 356.929688 238.566406 C 363.683594 246.652344 369.09375 256.757812 371.84375 266.445312 C 374.601562 276.191406 374.960938 285.121094 372.921875 293.101562 C 372.589844 294.433594 371.945312 294.796875 373.210938 295.386719 C 377.300781 297.359375 380.363281 300.890625 381.609375 305.066406 C 383.011719 309.761719 382.714844 316.496094 380.804688 322.773438 C 379.929688 325.679688 379.066406 327.179688 377.265625 328.929688 C 375.179688 330.984375 373.148438 332.09375 370.210938 332.808594 C 368.0625 333.324219 366.648438 333.464844 364.113281 333.382812 C 361.078125 333.28125 361.296875 333.164062 360.011719 335.632812 C 358.882812 337.789062 357.359375 341.113281 357.3125 341.503906 C 357.277344 341.734375 357.421875 341.851562 358.273438 342.265625 C 359.664062 342.957031 361.824219 343.777344 363.15625 344.113281 C 364.847656 344.527344 366.527344 344.664062 369.636719 344.597656 C 372.179688 344.550781 372.46875 344.527344 373.292969 344.261719 C 375.503906 343.558594 377.253906 342.625 380.171875 340.617188 C 382.761719 338.832031 383.714844 338.382812 384.578125 338.035156 C 385.039062 337.851562 385.730469 337.371094 386.164062 337.734375 C 386.480469 338.003906 386.507812 338.777344 386.351562 339.796875 C 386.238281 340.554688 386.113281 341.449219 385.75 342.382812 C 385.597656 342.949219 383.683594 346.269531 381.957031 348.4375 C 380.902344 349.753906 376.988281 353.5 375.574219 354.550781 C 373.773438 355.878906 371.769531 357.101562 369.71875 358.105469 C 362.171875 361.796875 352.355469 364.667969 344.738281 365.394531 C 338.796875 365.960938 337.476562 366.269531 333.097656 368.140625 C 327.265625 370.617188 319.109375 372.578125 313.421875 372.867188 C 308.234375 373.140625 303.039062 373.109375 297.859375 372.914062 C 296.585938 372.890625 293.777344 372.558594 291.164062 372.132812 C 280.746094 370.445312 271.066406 366.835938 262.859375 361.5625 C 259.953125 359.695312 257.914062 358.148438 254.988281 355.578125 C 254.160156 354.851562 253.128906 353.964844 252.671875 353.59375 C 251.445312 352.597656 250.507812 352.914062 248.867188 353.214844 C 246.421875 353.675781 244.824219 353.777344 241.441406 353.710938 C 237.300781 353.628906 235.105469 353.292969 232.03125 352.289062 C 230.183594 351.691406 226.671875 350.050781 224.894531 348.96875 C 221.042969 346.625 215.941406 342.3125 212.941406 338.863281 C 210.820312 336.429688 208.972656 333.820312 208.3125 332.355469 C 208.136719 331.953125 208.109375 331.5 208.042969 331.066406 C 207.96875 330.570312 207.632812 328.828125 208.144531 328.28125 C 208.371094 328.039062 208.832031 328.242188 209.046875 328.316406 C 211.464844 329.140625 211.796875 329.0625 213.832031 330.671875 C 215.582031 332.058594 217.515625 333.359375 218.652344 333.914062 C 219.039062 334.097656 219.855469 334.421875 220.464844 334.617188 C 221.484375 334.953125 221.691406 334.988281 223.191406 334.988281 C 224.976562 335 225.421875 334.90625 226.96875 334.15625 C 228.21875 333.566406 229.140625 332.886719 230.292969 331.734375 C 232.429688 329.566406 233.714844 327.582031 234 326.011719 C 234.179688 324.953125 234.085938 323.984375 233.507812 321.15625 C 232.429688 315.792969 231.566406 308.746094 230.964844 300.105469 C 230.75 297.003906 230.75 282.363281 230.964844 279.570312 C 231.804688 268.785156 233.414062 261.460938 236.4375 254.632812 C 237.113281 253.097656 237.433594 252.78125 237.710938 251.300781 C 237.761719 251.023438 237.734375 250.519531 237.53125 250.273438 C 237.199219 249.863281 236.800781 249.507812 236.414062 249.144531 C 234.925781 247.722656 234.085938 246.523438 233.507812 244.988281 C 232.261719 241.667969 232.429688 238.230469 234 235.058594 C 234.722656 233.605469 235.488281 232.589844 236.714844 231.460938 C 237.828125 230.445312 238.691406 229.878906 240.046875 229.277344 C 241.753906 228.519531 242.292969 228.414062 244.667969 228.425781 C 246.648438 228.425781 246.828125 228.449219 247.726562 228.746094 C 249.875 229.464844 251.589844 230.617188 252.984375 232.289062 C 254.433594 234.03125 255.191406 235.808594 255.480469 238.171875 C 255.789062 240.746094 255.359375 243.007812 254.085938 245.472656 C 253.4375 246.753906 253.308594 247.238281 253.605469 247.34375 C 253.894531 247.457031 254.460938 247.148438 255.453125 246.339844 C 257.027344 245.058594 258.273438 243.097656 258.910156 240.871094 C 259.210938 239.820312 259.234375 239.535156 259.246094 237.640625 C 259.246094 235.253906 259.113281 234.664062 258.140625 232.808594 C 256.703125 230.050781 254.976562 228.414062 252.035156 226.996094 C 251.539062 226.753906 251.066406 226.46875 250.589844 226.191406 C 249.359375 225.480469 251.175781 224.503906 251.777344 224.058594 C 252.96875 223.179688 254.160156 222.296875 255.40625 221.492188 C 262.785156 216.761719 272 213.683594 283.0625 212.265625 C 290.992188 211.519531 286.222656 211.824219 297.390625 211.78125 M 283.242188 332.773438 C 282.921875 332.75 282.789062 332.851562 281.984375 333.8125 C 280.855469 335.136719 277.628906 338.273438 276.046875 339.578125 C 271.796875 343.074219 266.828125 346.097656 261.164062 348.632812 C 259.847656 349.234375 258.695312 349.785156 258.609375 349.867188 C 258.308594 350.144531 258.863281 351.101562 259.796875 351.945312 C 262.390625 354.296875 266.410156 357.121094 269.925781 359.0625 C 271.738281 360.054688 275.230469 361.667969 277.242188 362.429688 C 283.820312 364.921875 291.113281 366.445312 299.320312 367.054688 C 302.308594 367.273438 308.621094 367.273438 311.320312 367.066406 C 315.148438 366.765625 318.722656 366.234375 321.398438 365.566406 C 321.976562 365.421875 322.554688 365.265625 323.105469 365.042969 C 323.84375 364.746094 323.683594 364.121094 323.101562 363.761719 C 322.613281 363.464844 321.476562 363.371094 321.089844 363.28125 C 315.363281 361.957031 310.253906 359.71875 303.605469 355.648438 C 302.273438 354.828125 302.046875 354.734375 301.433594 354.6875 C 300.582031 354.632812 300.355469 354.734375 298.660156 355.933594 C 297.964844 356.429688 297.054688 357.019531 296.621094 357.238281 C 294.078125 358.589844 289.339844 359.324219 285.941406 358.933594 C 283.628906 358.65625 281.203125 357.769531 279.261719 356.488281 C 277.398438 355.265625 274.234375 352.058594 273.550781 350.710938 C 272.914062 349.453125 272.839844 347.859375 273.34375 346.546875 C 274.496094 343.613281 278.128906 343.984375 280.578125 344.5625 C 283.605469 345.300781 284.253906 345.367188 287.804688 345.378906 L 290.921875 345.378906 L 290.960938 345.082031 C 290.984375 344.859375 290.695312 344.421875 289.734375 343.234375 C 287.539062 340.523438 285.777344 337.652344 284.324219 334.421875 C 283.640625 332.898438 283.578125 332.808594 283.242188 332.773438 M 279.71875 349.523438 C 279.386719 349.757812 279.417969 349.609375 279.546875 349.949219 C 279.871094 350.492188 281.851562 352.242188 282.621094 352.695312 C 284.46875 353.742188 287.261719 354.191406 289.855469 353.847656 C 291.234375 353.664062 292.6875 353.222656 294.1875 352.53125 C 294.886719 352.210938 295.554688 351.820312 296.238281 351.464844 C 296.5 351.332031 297.125 351.113281 297.222656 350.757812 C 297.296875 350.488281 296.703125 350.222656 296.609375 350.144531 L 295.984375 349.625 L 295.121094 349.832031 C 292.304688 350.480469 286.253906 350.445312 281.109375 349.765625 C 280.648438 349.640625 280.1875 349.574219 279.71875 349.523438 M 307.449219 227.441406 L 306.246094 227.457031 C 304.195312 227.503906 303.726562 227.550781 302.71875 227.8125 C 301.039062 228.242188 299.644531 228.816406 298.46875 229.566406 C 297.28125 230.328125 296.585938 231.101562 295.902344 232.449219 C 295.148438 233.914062 294.917969 234.90625 294.859375 237.121094 C 294.785156 239.5 294.941406 240.296875 295.769531 241.910156 C 296.851562 243.996094 298.050781 245.140625 300.28125 246.179688 C 301.804688 246.894531 302.574219 247.078125 303.820312 247.019531 L 304.722656 246.984375 L 303.703125 246.476562 C 301.085938 245.175781 299.921875 244.171875 299.082031 242.496094 C 298.386719 241.089844 298.253906 240.375 298.339844 238.355469 C 298.445312 235.808594 298.878906 234.5625 300.101562 233.28125 C 300.75 232.601562 301.984375 231.746094 302.800781 231.414062 C 304.300781 230.8125 307.191406 230.523438 309.160156 230.765625 C 310.421875 230.929688 312.460938 231.550781 313.410156 232.070312 C 314.429688 232.613281 315.578125 233.464844 316.277344 234.15625 C 317.03125 234.929688 318.339844 236.847656 318.84375 237.894531 C 320.390625 241.195312 320.152344 245.878906 318.257812 249.0625 C 315.722656 253.328125 311.488281 256.179688 305.980469 257.332031 C 304.582031 257.617188 303.078125 257.625 301.660156 257.585938 C 297.796875 257.480469 297.414062 257.550781 293.660156 256.617188 C 287.527344 255.082031 284.085938 253.191406 278.457031 248.289062 C 277.148438 247.148438 276.824219 246.960938 276.296875 247.089844 C 276.128906 247.125 275.386719 247.710938 274.640625 248.382812 C 272.179688 250.585938 269.421875 252.394531 266.085938 253.976562 C 260.046875 256.835938 252.519531 257.535156 246.191406 255.058594 C 245.613281 254.832031 245.074219 254.519531 244.476562 254.339844 C 242.929688 253.878906 242.535156 255.324219 242.089844 256.457031 C 239.867188 262.050781 238.175781 269.269531 237.300781 276.917969 C 236.796875 281.269531 236.714844 283.242188 236.785156 290 C 236.84375 296.449219 237.097656 300.75 237.839844 308.296875 C 238.332031 313.40625 239.0625 319.253906 239.21875 319.507812 C 239.339844 319.691406 239.84375 319.289062 240.78125 318.285156 C 241.992188 316.96875 244.234375 314.996094 245.929688 313.773438 C 250.296875 310.589844 255.238281 308.480469 260.445312 307.589844 C 262.257812 307.28125 266.398438 307.164062 268.160156 307.359375 C 275.023438 308.167969 280.605469 311.433594 284.5625 316.945312 C 285.320312 318.003906 285.488281 318.855469 286.617188 318.007812 C 286.839844 317.839844 287.027344 317.632812 287.238281 317.453125 C 290 315.089844 292.566406 313.566406 295.902344 312.296875 C 299.527344 310.925781 303.210938 310.289062 308.140625 310.175781 C 312.351562 310.082031 314.835938 310.335938 318.878906 311.292969 C 330.964844 314.144531 340.863281 321.457031 350.976562 335.03125 C 351.28125 335.441406 352.074219 337.726562 352.933594 336.808594 C 353.222656 336.511719 354.058594 334.746094 354.574219 333.339844 C 355.054688 332.046875 355.546875 330.0625 355.777344 328.539062 C 355.957031 327.328125 356.101562 326.902344 356.410156 326.691406 C 356.773438 326.449219 357.828125 326.472656 360.214844 326.761719 C 361.308594 326.890625 363.121094 327.027344 364.234375 327.0625 C 367.414062 327.164062 369.046875 326.890625 371.230469 325.875 C 372.75 325.167969 374.132812 324.089844 374.878906 322.597656 C 376.1875 319.957031 376.847656 316.082031 376.738281 311.582031 C 376.664062 308.351562 376.222656 306.058594 375.320312 304.292969 C 374.734375 303.128906 373.472656 302.226562 371.097656 301.269531 C 369.921875 300.800781 368.683594 300.484375 367.472656 300.105469 C 366.984375 299.953125 364.675781 298.898438 364.191406 299.816406 C 363.996094 300.183594 363.835938 300.574219 363.753906 300.980469 C 363.660156 301.441406 363.503906 301.949219 363.394531 302.113281 C 362.867188 302.886719 360.121094 303.253906 359.003906 302.699219 C 358.414062 302.398438 357.433594 301.363281 357 300.578125 C 356.34375 299.003906 356.628906 298.59375 356.578125 296.566406 C 356.542969 295.21875 356.425781 290.179688 356.136719 288.859375 C 355.847656 287.507812 354.347656 282.894531 353.652344 281.1875 C 351.433594 275.753906 348.179688 271.070312 344.003906 267.308594 C 338.449219 262.304688 332.164062 259.375 322.984375 257.480469 C 322.300781 257.34375 321.941406 257.195312 321.664062 256.964844 L 321.28125 256.640625 L 321.855469 253.421875 C 322.167969 251.65625 322.769531 248.21875 323.199219 245.773438 C 323.777344 242.519531 324.039062 241.253906 324.207031 241.046875 C 324.59375 240.535156 325.226562 240.59375 327.578125 241.332031 C 332.800781 242.984375 336.195312 244.714844 339.996094 247.65625 C 347.171875 253.203125 352.597656 260.136719 356.59375 268.855469 C 358.609375 273.226562 360.769531 279.421875 361.488281 282.835938 C 361.609375 283.421875 361.753906 284.007812 361.90625 284.585938 C 361.921875 284.644531 362.03125 285.035156 362.21875 284.992188 C 362.40625 284.953125 362.367188 284.558594 362.363281 284.488281 C 362.359375 283.628906 362.359375 282.773438 362.339844 281.914062 C 362.242188 277.785156 361.90625 275.71875 360.636719 271.496094 C 358.765625 265.28125 356.785156 261.046875 353.4375 256.15625 C 349.082031 249.765625 342.636719 243.328125 335.679688 238.390625 C 328.921875 233.605469 321.292969 229.960938 314.667969 228.367188 C 312.308594 227.691406 309.886719 227.515625 307.449219 227.441406 M 310.835938 259.132812 C 318.460938 259.132812 325.671875 262.269531 330.613281 267.726562 C 332.203125 269.476562 333.230469 270.964844 334.324219 273.085938 C 335.480469 275.355469 336.105469 277.164062 336.613281 279.722656 C 336.886719 281.136719 337.003906 285.390625 336.808594 286.851562 C 336.015625 292.609375 333.515625 297.480469 329.3125 301.488281 C 325.203125 305.40625 320.035156 307.839844 314.324219 308.558594 C 312.527344 308.78125 309.105469 308.78125 307.386719 308.558594 C 301.84375 307.824219 296.910156 305.53125 292.890625 301.8125 C 290.484375 299.578125 288.871094 297.445312 287.476562 294.714844 C 281.21875 282.363281 286.621094 267.679688 299.644531 261.601562 C 303.222656 259.9375 306.855469 259.132812 310.835938 259.132812 M 309.601562 264.292969 C 307.050781 264.292969 306.503906 264.328125 305.398438 264.566406 C 302.808594 265.109375 300.152344 266.152344 297.925781 267.480469 L 297.25 267.875 L 299.476562 267.828125 C 302.195312 267.777344 304.082031 267.949219 305.851562 268.433594 C 313.621094 270.507812 319.566406 276.175781 321.621094 283.480469 C 322.210938 285.527344 322.390625 287.210938 322.3125 289.703125 C 322.261719 291.429688 322.171875 292.285156 321.910156 293.4375 C 321.167969 296.800781 319.695312 299.824219 317.589844 302.320312 C 317.199219 302.777344 316.886719 303.175781 316.886719 303.210938 C 316.886719 303.359375 317.109375 303.273438 318.644531 302.554688 C 325.085938 299.566406 329.40625 294.15625 330.5625 287.648438 C 330.964844 285.425781 330.875 282.164062 330.367188 280.03125 C 328.664062 272.960938 323.550781 267.539062 316.457031 265.273438 C 313.816406 264.429688 312.867188 264.292969 309.601562 264.292969 M 363.613281 288.546875 L 363.273438 288.570312 C 363.074219 288.578125 362.628906 288.527344 362.40625 288.667969 C 362.148438 288.832031 362.171875 289.21875 362.148438 289.449219 C 362.105469 289.988281 362.164062 290.703125 362.183594 291.199219 C 362.21875 292.375 362.292969 293.378906 362.339844 293.449219 C 362.507812 293.714844 362.878906 292.964844 363.515625 291.097656 C 363.84375 290.101562 364.074219 290.183594 364.25 289.277344 C 364.269531 289.179688 364.261719 289.078125 364.246094 288.980469 C 364.058594 288.515625 364.230469 288.703125 363.613281 288.546875 M 346.152344 259.753906 C 346.09375 259.777344 345.671875 260.308594 345.21875 260.941406 L 344.378906 262.097656 L 344.882812 262.5 C 345.460938 262.941406 345.992188 263.429688 346.535156 263.90625 C 346.664062 264.019531 347.199219 264.574219 347.449219 264.738281 C 347.601562 264.839844 347.796875 264.972656 347.996094 264.921875 C 348.148438 264.882812 348.46875 264.601562 348.527344 264.566406 C 348.851562 264.367188 349.128906 264.195312 349.152344 264.171875 C 349.273438 264.070312 346.296875 259.710938 346.152344 259.753906 M 339.050781 252.382812 C 338.917969 252.429688 336.351562 256.941406 336.339844 257.136719 C 336.339844 257.207031 336.757812 257.460938 337.273438 257.703125 C 337.8125 257.960938 338.335938 258.238281 338.859375 258.519531 C 339.039062 258.621094 339.375 258.929688 339.636719 258.878906 C 339.710938 258.867188 340.371094 258.105469 341.113281 257.195312 C 341.203125 257.082031 342.164062 256.292969 342.339844 255.949219 C 342.417969 255.796875 342.558594 255.589844 342.457031 255.453125 C 342.011719 254.84375 341.371094 254.386719 340.816406 253.863281 C 340.4375 253.511719 340.054688 253.164062 339.65625 252.828125 C 339.464844 252.667969 339.292969 252.3125 339.050781 252.382812 M 333.21875 248.253906 C 333.171875 248.289062 332.785156 249.175781 332.378906 250.238281 C 330.925781 253.976562 330.578125 254.992188 330.710938 255.070312 C 330.855469 255.152344 331.417969 255.324219 331.609375 255.335938 C 331.683594 255.347656 332.320312 254.34375 333.039062 253.132812 C 333.746094 251.910156 334.539062 250.574219 334.789062 250.15625 C 335.03125 249.742188 335.210938 249.371094 335.1875 249.328125 C 335.078125 249.164062 333.316406 248.195312 333.21875 248.253906 M 327.878906 245.867188 L 327.652344 245.945312 C 327.601562 246.085938 326.535156 251.921875 326.320312 253.238281 C 326.289062 253.429688 326.257812 253.632812 326.316406 253.816406 C 326.375 253.992188 326.730469 254.003906 326.824219 253.875 C 327.007812 253.621094 327.121094 253.324219 327.230469 253.035156 C 327.5 252.296875 327.667969 250.851562 327.808594 250.261719 C 328.285156 248.21875 328.71875 246.453125 328.742188 246.351562 C 328.484375 245.914062 328.695312 246.167969 327.878906 245.867188 "/>
</g>
</svg>
